<?xml version="1.0" encoding="UTF-8" standalone="no"?>
<!DOCTYPE svg PUBLIC "-//W3C//DTD SVG 1.1//EN" "http://www.w3.org/Graphics/SVG/1.1/DTD/svg11.dtd">
<svg width="100%" height="100%" viewBox="0 0 476 122" version="1.1" xmlns="http://www.w3.org/2000/svg" xmlns:xlink="http://www.w3.org/1999/xlink" xml:space="preserve" xmlns:serif="http://www.serif.com/" style="fill-rule:evenodd;clip-rule:evenodd;stroke-linejoin:round;stroke-miterlimit:2;">
    <g transform="matrix(1,0,0,1,-12.0554,-183.37)">
        <g transform="matrix(9.69668,0,0,9.69668,-4914.09,-3590.38)">
            <path d="M511.998,399.857C511.504,399.857 510.915,399.934 510.453,399.808C509.991,399.682 509.578,399.488 509.215,399.225C508.851,398.962 508.562,398.628 508.347,398.223C508.132,397.818 508.024,397.334 508.024,396.772C508.024,396.401 508.08,396.054 508.192,395.729C508.305,395.404 508.458,395.141 508.652,394.94C508.847,394.739 509.065,394.638 509.307,394.638C509.509,394.638 509.719,394.718 509.939,394.878C510.442,395.24 510.618,395.211 511.08,395.211C511.3,395.211 511.811,395.045 511.946,394.963C512.081,394.88 512.148,394.782 512.148,394.668C512.148,394.535 512.037,394.394 511.815,394.246C511.594,394.097 511.227,393.972 510.714,393.872C510.385,393.817 510.038,393.715 509.675,393.566C509.311,393.418 508.999,393.207 508.738,392.935C508.478,392.663 508.34,392.317 508.327,391.896C508.327,391.534 508.36,391.056 508.536,390.762C508.786,390.345 509.136,389.853 509.481,389.715C509.849,389.567 510.233,389.402 510.675,389.313C511.116,389.224 511.565,389.179 512.023,389.179C512.631,389.179 513.197,389.253 513.721,389.399C514.245,389.545 514.665,389.765 514.983,390.058C515.301,390.35 515.465,390.716 515.474,391.155C515.474,391.379 515.417,391.568 515.302,391.721C515.188,391.875 515.044,391.991 514.87,392.071C514.696,392.151 514.335,392.191 514.335,392.191C514.335,392.191 513.982,392.146 513.824,392.054C513.666,391.963 513.555,391.825 513.491,391.642C513.368,391.295 513.195,391.05 512.973,390.908C512.751,390.767 512.521,390.696 512.284,390.696C512.005,390.696 511.434,390.776 511.329,391.018C511.052,391.659 511.208,391.835 511.215,391.937C511.224,392.065 511.296,392.184 511.459,392.294C511.621,392.404 511.894,392.486 512.279,392.541C513.207,392.669 513.965,392.91 514.553,393.265C515.141,393.619 515.573,394.055 515.85,394.572C516.127,395.088 516.265,395.644 516.265,396.239C516.265,396.801 516.138,397.297 515.884,397.724C515.63,398.152 515.294,398.509 514.876,398.795C514.457,399.08 513.99,399.297 513.476,399.443C512.961,399.589 512.524,399.857 511.998,399.857Z" style="fill-rule:nonzero;"/>
            <path d="M518.357,391.553C518.01,391.553 517.725,391.513 517.503,391.433C517.281,391.353 517.118,391.249 517.013,391.12C516.908,390.992 516.855,390.855 516.855,390.709C516.855,390.553 516.914,390.4 517.033,390.249C517.152,390.098 517.324,389.975 517.548,389.879C517.772,389.783 518.04,389.735 518.351,389.735C518.675,389.735 518.951,389.783 519.177,389.879C519.404,389.975 519.578,390.097 519.699,390.246C519.82,390.394 519.881,390.546 519.881,390.702C519.881,390.848 519.827,390.986 519.719,391.114C519.612,391.242 519.446,391.347 519.222,391.429C518.998,391.512 518.71,391.553 518.357,391.553ZM518.989,399.56C518.444,399.56 518.002,399.476 517.661,399.309C517.32,399.142 517.071,398.925 516.913,398.657C516.755,398.39 516.677,398.105 516.677,397.803C516.677,397.661 516.693,397.52 516.725,397.378C516.843,396.893 516.976,396.442 517.122,396.026C517.232,395.711 517.326,395.412 517.404,395.131C517.482,394.849 517.52,394.585 517.52,394.338C517.52,394.027 517.436,393.737 517.267,393.467C517.148,393.279 517.088,393.11 517.088,392.959C517.088,392.79 517.155,392.647 517.287,392.53C517.42,392.414 517.592,392.327 517.805,392.27C518.018,392.213 518.241,392.184 518.474,392.184C518.717,392.184 518.951,392.215 519.177,392.277C519.404,392.338 519.59,392.431 519.737,392.554C519.883,392.678 519.956,392.829 519.956,393.007C519.956,393.122 519.922,393.245 519.853,393.378C519.734,393.625 519.675,393.92 519.675,394.263C519.675,394.665 519.746,395.09 519.888,395.536C520.029,395.982 520.224,396.371 520.471,396.705C520.777,397.122 520.93,397.526 520.93,397.92C520.93,398.245 520.837,398.53 520.649,398.777C520.462,399.024 520.219,399.217 519.922,399.354C519.624,399.491 519.313,399.56 518.989,399.56Z" style="fill-rule:nonzero;"/>
            <path d="M523.03,399.58C522.765,399.58 522.539,399.546 522.354,399.477C522.169,399.409 522.018,399.308 521.901,399.175C521.785,399.043 521.701,398.878 521.651,398.681C521.6,398.485 521.575,398.261 521.575,398.009C521.575,397.639 521.603,397.267 521.658,396.894C521.713,396.521 521.772,396.149 521.836,395.776C521.9,395.403 521.96,395.028 522.014,394.651C522.069,394.273 522.097,393.892 522.097,393.508C522.097,393.028 522.045,392.576 521.942,392.153C521.839,391.73 521.662,391.313 521.411,390.901C521.374,390.846 521.344,390.789 521.321,390.729C521.299,390.67 521.287,390.608 521.287,390.544C521.287,390.375 521.359,390.238 521.503,390.133C521.647,390.027 521.819,389.945 522.018,389.886C522.217,389.826 522.418,389.785 522.622,389.762C522.825,389.739 522.989,389.728 523.112,389.728C523.236,389.728 523.392,389.737 523.582,389.755C523.772,389.773 523.956,389.811 524.135,389.868C524.313,389.926 524.465,390.007 524.591,390.112C524.717,390.217 524.779,390.357 524.779,390.53C524.779,390.686 524.76,390.841 524.721,390.997C524.682,391.153 524.639,391.307 524.591,391.46C524.543,391.613 524.499,391.768 524.46,391.923C524.422,392.079 524.402,392.234 524.402,392.39C524.402,392.468 524.419,392.541 524.454,392.609C524.488,392.678 524.551,392.712 524.642,392.712C524.747,392.712 524.863,392.684 524.989,392.626C525.114,392.569 525.252,392.505 525.4,392.434C525.549,392.363 525.708,392.299 525.877,392.242C526.046,392.185 526.227,392.157 526.419,392.157C526.707,392.157 526.961,392.218 527.181,392.342C527.4,392.465 527.592,392.629 527.757,392.832C527.922,393.036 528.06,393.269 528.172,393.532C528.284,393.795 528.375,394.066 528.443,394.345C528.512,394.624 528.561,394.9 528.591,395.172C528.62,395.444 528.635,395.69 528.635,395.91C528.635,396.129 528.62,396.373 528.591,396.64C528.561,396.908 528.513,397.177 528.447,397.446C528.38,397.716 528.292,397.977 528.183,398.229C528.073,398.48 527.937,398.703 527.774,398.898C527.612,399.092 527.421,399.249 527.201,399.367C526.982,399.486 526.73,399.546 526.447,399.546C526.291,399.546 526.14,399.524 525.994,399.481C525.847,399.437 525.708,399.39 525.575,399.34C525.443,399.29 525.319,399.243 525.205,399.199C525.09,399.156 524.988,399.134 524.896,399.134C524.809,399.134 524.701,399.157 524.57,399.203C524.44,399.249 524.292,399.3 524.128,399.357C523.963,399.414 523.788,399.466 523.603,399.512C523.418,399.557 523.227,399.58 523.03,399.58ZM525.507,397.494C525.676,397.494 525.815,397.434 525.925,397.313C526.035,397.191 526.121,397.047 526.183,396.88C526.244,396.713 526.287,396.538 526.309,396.355C526.332,396.173 526.344,396.019 526.344,395.896C526.344,395.768 526.327,395.624 526.292,395.464C526.258,395.303 526.204,395.154 526.131,395.014C526.058,394.875 525.964,394.757 525.85,394.661C525.735,394.565 525.598,394.517 525.438,394.517C525.269,394.517 525.13,394.566 525.023,394.664C524.916,394.763 524.832,394.883 524.773,395.024C524.713,395.166 524.673,395.317 524.653,395.477C524.632,395.637 524.622,395.781 524.622,395.91C524.622,396.038 524.634,396.193 524.659,396.376C524.685,396.559 524.73,396.733 524.797,396.898C524.863,397.062 524.953,397.203 525.068,397.319C525.182,397.436 525.328,397.494 525.507,397.494Z" style="fill-rule:nonzero;"/>
            <path d="M530.893,391.553C530.545,391.553 530.26,391.513 530.038,391.433C529.817,391.353 529.653,391.249 529.548,391.12C529.443,390.992 529.39,390.855 529.39,390.709C529.39,390.553 529.45,390.4 529.568,390.249C529.687,390.098 529.859,389.975 530.083,389.879C530.307,389.783 530.575,389.735 530.886,389.735C531.211,389.735 531.486,389.783 531.713,389.879C531.939,389.975 532.113,390.097 532.234,390.246C532.355,390.394 532.416,390.546 532.416,390.702C532.416,390.848 532.362,390.986 532.255,391.114C532.147,391.242 531.981,391.347 531.757,391.429C531.533,391.512 531.245,391.553 530.893,391.553ZM531.524,399.56C530.98,399.56 530.537,399.476 530.196,399.309C529.855,399.142 529.606,398.925 529.448,398.657C529.291,398.39 529.212,398.105 529.212,397.803C529.212,397.661 529.228,397.52 529.26,397.378C529.379,396.893 529.511,396.442 529.658,396.026C529.767,395.711 529.861,395.412 529.939,395.131C530.017,394.849 530.056,394.585 530.056,394.338C530.056,394.027 529.971,393.737 529.802,393.467C529.683,393.279 529.623,393.11 529.623,392.959C529.623,392.79 529.69,392.647 529.822,392.53C529.955,392.414 530.128,392.327 530.34,392.27C530.553,392.213 530.776,392.184 531.009,392.184C531.252,392.184 531.486,392.215 531.713,392.277C531.939,392.338 532.125,392.431 532.272,392.554C532.418,392.678 532.491,392.829 532.491,393.007C532.491,393.122 532.457,393.245 532.388,393.378C532.269,393.625 532.21,393.92 532.21,394.263C532.21,394.665 532.281,395.09 532.423,395.536C532.564,395.982 532.759,396.371 533.006,396.705C533.312,397.122 533.466,397.526 533.466,397.92C533.466,398.245 533.372,398.53 533.184,398.777C532.997,399.024 532.754,399.217 532.457,399.354C532.16,399.491 531.849,399.56 531.524,399.56Z" style="fill-rule:nonzero;"/>
            <path d="M536.635,399.56C536.045,399.56 535.554,399.451 535.16,399.234C534.767,399.016 534.471,398.737 534.272,398.397C534.073,398.056 533.973,397.698 533.973,397.323C533.973,397.199 533.985,397.076 534.008,396.952C534.113,396.413 534.252,395.873 534.426,395.333C534.554,394.912 534.667,394.496 534.766,394.084C534.864,393.673 534.913,393.27 534.913,392.877C534.913,392.584 534.875,392.298 534.8,392.019C534.725,391.74 534.598,391.47 534.419,391.21C534.241,390.949 534.152,390.727 534.152,390.544C534.152,390.352 534.223,390.197 534.364,390.078C534.506,389.959 534.689,389.872 534.913,389.817C535.137,389.762 535.375,389.735 535.627,389.735C535.892,389.735 536.149,389.767 536.399,389.831C536.648,389.895 536.854,389.992 537.016,390.122C537.179,390.253 537.26,390.416 537.26,390.613C537.26,390.759 537.2,390.926 537.081,391.114C536.962,391.301 536.875,391.534 536.821,391.813C536.766,392.092 536.738,392.397 536.738,392.726C536.738,393.348 536.821,393.984 536.985,394.633C537.15,395.283 537.356,395.8 537.603,396.184C538.024,396.815 538.234,397.405 538.234,397.954C538.234,398.439 538.082,398.828 537.778,399.12C537.474,399.413 537.093,399.56 536.635,399.56Z" style="fill-rule:nonzero;"/>
            <path d="M540.491,391.553C540.144,391.553 539.859,391.513 539.637,391.433C539.415,391.353 539.252,391.249 539.146,391.12C539.041,390.992 538.989,390.855 538.989,390.709C538.989,390.553 539.048,390.4 539.167,390.249C539.286,390.098 539.458,389.975 539.682,389.879C539.906,389.783 540.173,389.735 540.484,389.735C540.809,389.735 541.085,389.783 541.311,389.879C541.538,389.975 541.711,390.097 541.833,390.246C541.954,390.394 542.014,390.546 542.014,390.702C542.014,390.848 541.961,390.986 541.853,391.114C541.746,391.242 541.58,391.347 541.356,391.429C541.132,391.512 540.843,391.553 540.491,391.553ZM541.122,399.56C540.578,399.56 540.136,399.476 539.795,399.309C539.454,399.142 539.205,398.925 539.047,398.657C538.889,398.39 538.81,398.105 538.81,397.803C538.81,397.661 538.826,397.52 538.858,397.378C538.977,396.893 539.11,396.442 539.256,396.026C539.366,395.711 539.46,395.412 539.538,395.131C539.615,394.849 539.654,394.585 539.654,394.338C539.654,394.027 539.57,393.737 539.4,393.467C539.281,393.279 539.222,393.11 539.222,392.959C539.222,392.79 539.288,392.647 539.421,392.53C539.554,392.414 539.726,392.327 539.939,392.27C540.152,392.213 540.375,392.184 540.608,392.184C540.85,392.184 541.085,392.215 541.311,392.277C541.538,392.338 541.724,392.431 541.87,392.554C542.017,392.678 542.09,392.829 542.09,393.007C542.09,393.122 542.056,393.245 541.987,393.378C541.868,393.625 541.809,393.92 541.809,394.263C541.809,394.665 541.879,395.09 542.021,395.536C542.163,395.982 542.357,396.371 542.604,396.705C542.911,397.122 543.064,397.526 543.064,397.92C543.064,398.245 542.97,398.53 542.783,398.777C542.595,399.024 542.353,399.217 542.056,399.354C541.758,399.491 541.447,399.56 541.122,399.56Z" style="fill-rule:nonzero;"/>
            <path d="M547.092,399.56C546.666,399.56 546.297,399.484 545.984,399.333C545.67,399.182 545.411,398.978 545.205,398.719C544.999,398.461 544.847,398.159 544.749,397.813C544.65,397.468 544.601,397.099 544.601,396.705C544.601,396.481 544.612,396.255 544.635,396.026C544.658,395.797 544.695,395.573 544.745,395.354C544.777,395.207 544.813,395.056 544.851,394.901C544.89,394.745 544.91,394.592 544.91,394.441C544.91,394.35 544.885,394.281 544.834,394.235C544.784,394.19 544.713,394.167 544.622,394.167C544.48,394.167 544.341,394.181 544.207,394.208C544.072,394.235 543.933,394.249 543.791,394.249C543.695,394.249 543.616,394.223 543.555,394.17C543.493,394.118 543.443,394.051 543.404,393.971C543.365,393.891 543.337,393.805 543.321,393.714C543.305,393.622 543.297,393.54 543.297,393.467C543.297,393.385 543.307,393.295 543.325,393.199C543.343,393.103 543.374,393.014 543.418,392.932C543.461,392.849 543.518,392.781 543.589,392.726C543.66,392.671 543.746,392.644 543.846,392.644C543.929,392.644 544.01,392.649 544.09,392.661C544.17,392.672 544.251,392.678 544.333,392.678C544.393,392.678 544.454,392.675 544.515,392.668C544.577,392.661 544.632,392.646 544.68,392.623C544.728,392.6 544.767,392.566 544.797,392.52C544.826,392.474 544.841,392.415 544.841,392.342C544.841,392.209 544.822,392.08 544.783,391.954C544.744,391.828 544.701,391.701 544.652,391.573C544.604,391.445 544.56,391.318 544.519,391.193C544.478,391.067 544.457,390.94 544.457,390.812C544.457,390.606 544.516,390.433 544.635,390.294C544.754,390.154 544.901,390.042 545.074,389.958C545.248,389.873 545.436,389.813 545.637,389.779C545.838,389.745 546.021,389.728 546.186,389.728C546.323,389.728 546.482,389.741 546.663,389.769C546.843,389.796 547.015,389.845 547.177,389.916C547.34,389.987 547.476,390.081 547.586,390.198C547.695,390.314 547.75,390.462 547.75,390.64C547.75,390.755 547.722,390.876 547.665,391.004C547.607,391.132 547.543,391.266 547.472,391.405C547.401,391.545 547.337,391.687 547.28,391.831C547.223,391.975 547.195,392.118 547.195,392.259C547.195,392.406 547.246,392.503 547.349,392.551C547.452,392.599 547.565,392.623 547.689,392.623C547.844,392.623 547.997,392.612 548.148,392.589C548.299,392.566 548.452,392.554 548.608,392.554C548.713,392.554 548.806,392.578 548.886,392.626C548.966,392.675 549.032,392.737 549.085,392.815C549.137,392.893 549.176,392.98 549.201,393.076C549.227,393.172 549.239,393.268 549.239,393.364C549.239,393.46 549.225,393.556 549.198,393.652C549.171,393.748 549.129,393.834 549.074,393.91C549.02,393.985 548.952,394.047 548.872,394.095C548.792,394.143 548.697,394.167 548.587,394.167C548.4,394.167 548.216,394.147 548.035,394.108C547.854,394.07 547.673,394.05 547.49,394.05C547.393,394.05 547.319,394.064 547.267,394.091C547.214,394.119 547.174,394.158 547.146,394.208C547.119,394.258 547.103,394.317 547.098,394.383C547.094,394.449 547.092,394.524 547.092,394.606C547.092,394.688 547.094,394.801 547.098,394.946C547.103,395.09 547.114,395.246 547.133,395.416C547.151,395.585 547.179,395.755 547.215,395.927C547.252,396.098 547.3,396.255 547.359,396.397C547.419,396.538 547.493,396.654 547.582,396.743C547.671,396.832 547.78,396.877 547.908,396.877C548.036,396.877 548.149,396.838 548.248,396.76C548.346,396.683 548.44,396.597 548.529,396.503C548.618,396.409 548.709,396.323 548.8,396.246C548.891,396.168 548.994,396.129 549.109,396.129C549.241,396.129 549.353,396.168 549.445,396.246C549.536,396.323 549.611,396.418 549.668,396.53C549.725,396.643 549.767,396.764 549.795,396.894C549.822,397.024 549.836,397.142 549.836,397.247C549.836,397.613 549.755,397.939 549.592,398.225C549.43,398.511 549.219,398.753 548.958,398.952C548.697,399.151 548.403,399.302 548.076,399.405C547.749,399.508 547.421,399.56 547.092,399.56Z" style="fill-rule:nonzero;"/>
            <path d="M553.939,401.707C553.285,401.707 552.727,401.619 552.244,401.561C551.774,401.505 551.492,401.282 551.167,401.039C551.045,400.948 550.795,400.799 550.546,400.264C550.38,399.909 550.357,399.513 550.357,399.125C550.357,398.612 550.459,398.168 550.662,397.79C550.866,397.413 551.121,397.224 551.427,397.224C551.606,397.224 551.753,397.249 551.87,397.3C551.986,397.35 552.097,397.411 552.203,397.481C552.308,397.552 552.431,397.616 552.573,397.674C552.715,397.731 552.896,397.762 553.115,397.766C553.33,397.766 553.526,397.675 553.702,397.492C553.878,397.309 554.052,396.556 554.155,396.311C554.258,396.066 554.309,395.855 554.309,395.676C554.309,395.448 554.229,395.333 554.069,395.333C553.973,395.333 553.793,395.457 553.527,395.704C553.271,395.928 552.997,396.091 552.704,396.194C552.411,396.297 552.125,396.349 551.846,396.349C551.38,396.349 550.992,396.232 550.683,395.999C550.375,395.765 550.22,395.448 550.22,395.045C550.22,394.848 550.26,394.6 550.34,394.301C550.42,394.001 550.46,393.767 550.46,393.597C550.46,393.309 550.385,393.01 550.234,392.699C550.147,392.506 550.104,392.335 550.104,392.184C550.104,391.964 550.179,391.788 550.33,391.656C550.481,391.523 550.671,391.427 550.899,391.367C551.128,391.308 551.355,391.278 551.579,391.278C551.862,391.278 552.084,391.331 552.244,391.436C552.404,391.541 552.516,391.685 552.58,391.868C552.644,392.051 552.677,392.259 552.677,392.493C552.677,392.657 552.665,392.832 552.642,393.018C552.619,393.203 552.608,393.369 552.608,393.515C552.608,393.835 552.647,394.066 552.725,394.208C552.802,394.35 552.898,394.421 553.013,394.421C553.196,394.421 553.382,394.256 553.572,393.927C553.762,393.597 553.866,393.161 553.884,392.616C553.893,392.305 553.969,392.05 554.11,391.851C554.252,391.652 554.435,391.507 554.659,391.416C554.883,391.324 555.112,391.278 555.345,391.278C555.707,391.278 556.01,391.363 556.255,391.532C556.499,391.701 556.622,391.939 556.622,392.246C556.622,392.388 556.574,392.605 556.478,392.898C556.427,393.067 556.38,393.239 556.337,393.416C556.293,393.592 556.272,393.748 556.272,393.886C556.272,394.27 556.316,394.702 556.405,395.182C556.495,395.663 556.594,396.152 556.704,396.651C556.809,397.117 556.902,397.566 556.982,397.999C557.062,398.431 557.102,398.812 557.102,399.141C557.102,399.571 557.01,399.946 556.827,400.266C556.644,400.586 556.402,400.853 556.1,401.066C555.798,401.278 555.459,401.438 555.081,401.546C554.704,401.653 554.323,401.707 553.939,401.707Z" style="fill-rule:nonzero;"/>
        </g>
    </g>
</svg>
