<?xml version="1.0" encoding="UTF-8" standalone="no"?>
<!DOCTYPE svg PUBLIC "-//W3C//DTD SVG 1.1//EN" "http://www.w3.org/Graphics/SVG/1.1/DTD/svg11.dtd">
<svg width="100%" height="100%" viewBox="0 0 64 64" version="1.1" xmlns="http://www.w3.org/2000/svg" xmlns:xlink="http://www.w3.org/1999/xlink" xml:space="preserve" xmlns:serif="http://www.serif.com/" style="fill-rule:evenodd;clip-rule:evenodd;stroke-linejoin:round;stroke-miterlimit:2;">
    <rect x="-12.77" y="-12.02" width="93.531" height="84.227" style="fill:white;"/>
    <g transform="matrix(4.86135,0,0,4.86135,-2459.32,-1886.45)">
        <clipPath id="_clip1">
            <rect x="508.024" y="389.179" width="8.281" height="12.528"/>
        </clipPath>
        <g clip-path="url(#_clip1)">
            <path d="M511.998,399.857C511.504,399.857 510.915,399.934 510.453,399.808C509.991,399.682 509.578,399.488 509.215,399.225C508.851,398.962 508.562,398.628 508.347,398.223C508.132,397.818 508.024,397.334 508.024,396.772C508.024,396.401 508.08,396.054 508.192,395.729C508.305,395.404 508.458,395.141 508.652,394.94C508.847,394.739 509.065,394.638 509.307,394.638C509.509,394.638 509.719,394.718 509.939,394.878C510.442,395.24 510.618,395.211 511.08,395.211C511.3,395.211 511.811,395.045 511.946,394.963C512.081,394.88 512.148,394.782 512.148,394.668C512.148,394.535 512.037,394.394 511.815,394.246C511.594,394.097 511.227,393.972 510.714,393.872C510.385,393.817 510.038,393.715 509.675,393.566C509.311,393.418 508.999,393.207 508.738,392.935C508.478,392.663 508.34,392.317 508.327,391.896C508.327,391.534 508.36,391.056 508.536,390.762C508.786,390.345 509.136,389.853 509.481,389.715C509.849,389.567 510.233,389.402 510.675,389.313C511.116,389.224 511.565,389.179 512.023,389.179C512.631,389.179 513.197,389.253 513.721,389.399C514.245,389.545 514.665,389.765 514.983,390.058C515.301,390.35 515.465,390.716 515.474,391.155C515.474,391.379 515.417,391.568 515.302,391.721C515.188,391.875 515.044,391.991 514.87,392.071C514.696,392.151 514.335,392.191 514.335,392.191C514.335,392.191 513.982,392.146 513.824,392.054C513.666,391.963 513.555,391.825 513.491,391.642C513.368,391.295 513.195,391.05 512.973,390.908C512.751,390.767 512.521,390.696 512.284,390.696C512.005,390.696 511.434,390.776 511.329,391.018C511.052,391.659 511.208,391.835 511.215,391.937C511.224,392.065 511.296,392.184 511.459,392.294C511.621,392.404 511.894,392.486 512.279,392.541C513.207,392.669 513.965,392.91 514.553,393.265C515.141,393.619 515.573,394.055 515.85,394.572C516.127,395.088 516.265,395.644 516.265,396.239C516.265,396.801 516.138,397.297 515.884,397.724C515.63,398.152 515.294,398.509 514.876,398.795C514.457,399.08 513.99,399.297 513.476,399.443C512.961,399.589 512.524,399.857 511.998,399.857Z" style="fill-rule:nonzero;"/>
            <path d="M518.357,391.553C518.01,391.553 517.725,391.513 517.503,391.433C517.281,391.353 517.118,391.249 517.013,391.12C516.908,390.992 516.855,390.855 516.855,390.709C516.855,390.553 516.914,390.4 517.033,390.249C517.152,390.098 517.324,389.975 517.548,389.879C517.772,389.783 518.04,389.735 518.351,389.735C518.675,389.735 518.951,389.783 519.177,389.879C519.404,389.975 519.578,390.097 519.699,390.246C519.82,390.394 519.881,390.546 519.881,390.702C519.881,390.848 519.827,390.986 519.719,391.114C519.612,391.242 519.446,391.347 519.222,391.429C518.998,391.512 518.71,391.553 518.357,391.553ZM518.989,399.56C518.444,399.56 518.002,399.476 517.661,399.309C517.32,399.142 517.071,398.925 516.913,398.657C516.755,398.39 516.677,398.105 516.677,397.803C516.677,397.661 516.693,397.52 516.725,397.378C516.843,396.893 516.976,396.442 517.122,396.026C517.232,395.711 517.326,395.412 517.404,395.131C517.482,394.849 517.52,394.585 517.52,394.338C517.52,394.027 517.436,393.737 517.267,393.467C517.148,393.279 517.088,393.11 517.088,392.959C517.088,392.79 517.155,392.647 517.287,392.53C517.42,392.414 517.592,392.327 517.805,392.27C518.018,392.213 518.241,392.184 518.474,392.184C518.717,392.184 518.951,392.215 519.177,392.277C519.404,392.338 519.59,392.431 519.737,392.554C519.883,392.678 519.956,392.829 519.956,393.007C519.956,393.122 519.922,393.245 519.853,393.378C519.734,393.625 519.675,393.92 519.675,394.263C519.675,394.665 519.746,395.09 519.888,395.536C520.029,395.982 520.224,396.371 520.471,396.705C520.777,397.122 520.93,397.526 520.93,397.92C520.93,398.245 520.837,398.53 520.649,398.777C520.462,399.024 520.219,399.217 519.922,399.354C519.624,399.491 519.313,399.56 518.989,399.56Z" style="fill-rule:nonzero;"/>
        </g>
    </g>
</svg>
